<svg width="50" height="50" viewBox="0 0 50 50" fill="none" xmlns="http://www.w3.org/2000/svg">
<path d="M27.7083 35.9896C27.2917 35.5729 27.0917 35.0694 27.1083 34.4792C27.1264 33.8889 27.3437 33.3854 27.7604 32.9688L33.6458 27.0833H10.4167C9.82638 27.0833 9.33125 26.8833 8.93125 26.4833C8.53263 26.0847 8.33333 25.5903 8.33333 25C8.33333 24.4097 8.53263 23.9146 8.93125 23.5146C9.33125 23.116 9.82638 22.9167 10.4167 22.9167H33.6458L27.7083 16.9792C27.2917 16.5625 27.0833 16.0674 27.0833 15.4938C27.0833 14.9215 27.2917 14.4271 27.7083 14.0104C28.125 13.5938 28.6201 13.3854 29.1937 13.3854C29.766 13.3854 30.2604 13.5938 30.6771 14.0104L40.2083 23.5417C40.4167 23.75 40.5646 23.9757 40.6521 24.2188C40.7382 24.4618 40.7812 24.7222 40.7812 25C40.7812 25.2778 40.7382 25.5382 40.6521 25.7813C40.5646 26.0243 40.4167 26.25 40.2083 26.4583L30.625 36.0417C30.243 36.4236 29.766 36.6146 29.1937 36.6146C28.6201 36.6146 28.125 36.4063 27.7083 35.9896Z" fill="white"/>
</svg>
