<svg width="44" height="44" viewBox="0 0 44 44" fill="none" xmlns="http://www.w3.org/2000/svg">
<g clip-path="url(#clip0_4_30)">
<path d="M44.6875 22.6875C44.6875 10.5343 34.8407 0.6875 22.6875 0.6875C10.5343 0.6875 0.6875 10.5343 0.6875 22.6875C0.6875 33.668 8.73258 42.7696 19.25 44.4214V29.0471H13.6613V22.6875H19.25V17.8404C19.25 12.3271 22.5323 9.28169 27.5594 9.28169C29.967 9.28169 32.4846 9.71105 32.4846 9.71105V15.1223H29.7098C26.9775 15.1223 26.125 16.8185 26.125 18.5581V22.6875H32.2264L31.2506 29.0471H26.125V44.4214C36.6424 42.7696 44.6875 33.668 44.6875 22.6875Z" fill="white"/>
</g>
<defs>
<clipPath id="clip0_4_30">
<rect width="44" height="44" fill="white"/>
</clipPath>
</defs>
</svg>
