<svg width="44" height="44" viewBox="0 0 44 44" fill="none" xmlns="http://www.w3.org/2000/svg">
<path d="M22.0086 12.1172C16.5429 12.1172 12.1343 16.5258 12.1343 21.9914C12.1343 27.457 16.5429 31.8656 22.0086 31.8656C27.4742 31.8656 31.8828 27.457 31.8828 21.9914C31.8828 16.5258 27.4742 12.1172 22.0086 12.1172ZM22.0086 28.4109C18.4765 28.4109 15.589 25.532 15.589 21.9914C15.589 18.4508 18.4679 15.5719 22.0086 15.5719C25.5492 15.5719 28.4281 18.4508 28.4281 21.9914C28.4281 25.532 25.5406 28.4109 22.0086 28.4109ZM34.5898 11.7133C34.5898 12.9937 33.5586 14.0164 32.2867 14.0164C31.0062 14.0164 29.9836 12.9852 29.9836 11.7133C29.9836 10.4414 31.0148 9.41015 32.2867 9.41015C33.5586 9.41015 34.5898 10.4414 34.5898 11.7133ZM41.1297 14.0508C40.9836 10.9656 40.2789 8.23281 38.0187 5.98124C35.7672 3.72968 33.0344 3.02499 29.9492 2.87031C26.7695 2.68984 17.239 2.68984 14.0594 2.87031C10.9828 3.0164 8.24998 3.72109 5.98982 5.97265C3.72966 8.22421 3.03357 10.957 2.87888 14.0422C2.69841 17.2219 2.69841 26.7523 2.87888 29.932C3.02498 33.0172 3.72966 35.75 5.98982 38.0016C8.24998 40.2531 10.9742 40.9578 14.0594 41.1125C17.239 41.293 26.7695 41.293 29.9492 41.1125C33.0344 40.9664 35.7672 40.2617 38.0187 38.0016C40.2703 35.75 40.975 33.0172 41.1297 29.932C41.3101 26.7523 41.3101 17.2305 41.1297 14.0508ZM37.0219 33.3437C36.3515 35.0281 35.0539 36.3258 33.3609 37.0047C30.8258 38.0102 24.8101 37.7781 22.0086 37.7781C19.207 37.7781 13.1828 38.0016 10.6562 37.0047C8.97185 36.3344 7.67419 35.0367 6.99529 33.3437C5.98982 30.8086 6.22185 24.793 6.22185 21.9914C6.22185 19.1898 5.99841 13.1656 6.99529 10.6391C7.6656 8.95468 8.96326 7.65702 10.6562 6.97812C13.1914 5.97265 19.207 6.20468 22.0086 6.20468C24.8101 6.20468 30.8344 5.98124 33.3609 6.97812C35.0453 7.64843 36.3429 8.94609 37.0219 10.6391C38.0273 13.1742 37.7953 19.1898 37.7953 21.9914C37.7953 24.793 38.0273 30.8172 37.0219 33.3437Z" fill="white"/>
</svg>
